<svg fill="none" height="40" viewBox="0 0 40 40" width="40" xmlns="http://www.w3.org/2000/svg"><path clip-rule="evenodd" d="m7.53491 8.38338c0-2.83559 2.30029-5.08333 5.08329-5.08333h14.5634c2.8356 0 5.0833 2.30029 5.0833 5.08333v23.23332c0 2.8356-2.3003 5.0834-5.0833 5.0834h-14.5634c-2.83555 0-5.08329-2.3003-5.08329-5.0834v-3.91c0-.6276.48902-1.1167 1.11667-1.1167s1.11667.4891 1.11667 1.1167v3.91c0 1.5824 1.26765 2.85 2.84995 2.85h14.5634c1.5823 0 2.85-1.2676 2.85-2.85v-23.23332c0-1.58235-1.2677-2.85-2.85-2.85h-14.5634c-1.5823 0-2.84995 1.26765-2.84995 2.85v3.91002c0 .6276-.48902 1.1166-1.11667 1.1166s-1.11667-.489-1.11667-1.1166zm7.73029 7.09602c-.4476-.4494-.449-1.1128-.0492-1.5628.45-.4445 1.1122-.4442 1.561-.0437l5.5474 5.3776.0238.024v.0565l.1222.1222c.0709.1126.1136.2279.1612.3691v.5529c-.0027.0091-.0067.0212-.013.04l-.0009.0027c-.0064.0193-.0158.0475-.0234.0752-.0049.0181-.0129.0491-.0169.0861-.0115.0195-.0197.0361-.0255.0477l-.002.004-.0069.0134-.0502.0503c-.0125.0124-.0235.0247-.0333.0364l-5.629 5.3992-.0044.0044c-.2212.2212-.482.3088-.7512.3088-.3018 0-.5689-.1266-.8079-.3655-.4398-.4398-.3991-1.148.0454-1.5481l3.5469-3.4131h-10.20772c-.62765 0-1.11667-.489-1.11667-1.1167 0-.6117.47263-1.06 1.11667-1.06h10.20742z" fill="#13da5a" fill-rule="evenodd"/></svg>