<svg fill="none" height="48" viewBox="0 0 48 48" width="48" xmlns="http://www.w3.org/2000/svg" xmlns:xlink="http://www.w3.org/1999/xlink"><clipPath id="a"><path d="m0 0h48v48h-48z"/></clipPath><g clip-path="url(#a)"><path d="m20.0065 14.226c-1.7168 0-3.1129-1.3961-3.1129-3.113 0-1.71689 1.3961-3.113 3.1129-3.113 1.7169 0 3.113 1.39611 3.113 3.113 0 1.7169-1.3962 3.113-3.113 3.113z" fill="#fff"/><path d="m28.5672 11.1588c-1.7169 0-3.113-1.39607-3.113-3.11295 0-1.71687 1.3961-3.11299 3.113-3.11299 1.7168 0 3.1129 1.39612 3.1129 3.11299 0 1.71688-1.3961 3.11295-3.1129 3.11295z" fill="#fff"/><g fill="#13da5a"><path d="m19.2282 3.11304h-1.5564v3.89132h1.5564z"/><path d="m22.3412 2.33472h-1.5565v4.66948h1.5565z"/><path d="m27.789.778076h-1.5565v3.112994h1.5565z"/><path d="m30.902 0h-1.5565v3.89132h1.5565z"/><path clip-rule="evenodd" d="m47.0747 11 .9253 3.7021-1.51.3785-.3744-1.4966-5.7247 7.872-3.9838-3.1869-4.1831 4.1831c.1463.3041.2343.6403.2343.9999 0 .6-.2334 1.1425-.607 1.5565.3727.4141.607.9565.607 1.5565s-.2334 1.1424-.607 1.5565c.3727.4141.607.9565.607 1.5565 0 .3767-.0981.727-.2569 1.0422 1.6686 1.8576 2.5915 4.2242 2.5915 6.7403 0 2.7799-1.1042 5.3714-3.1098 7.2968-1.9028 1.8282-4.3761 2.8205-7.0026 2.8205-.14 0-.281-.0032-.4226-.0086-4.9208-.1984-9.0502-4.1185-9.6292-8.9382l-3.183-3.1831-10.34528 10.3453-1.10042-1.1004 11.4455-11.4461 3.1738 3.173c.1696-1.6639.7439-3.239 1.6787-4.6142l-1.1448-.572h-14.602989v-1.5565h14.971089l1.5565.7783h.3098c.0061-.006.0116-.0125.0172-.0191.0045-.0053.0091-.0107.014-.0159 1.5215-1.5643 2.411-3.4804 2.5581-5.4501l-.456-.5697 4.4352-3.5479 1.5704 1.5704c.4443.4435 1.1589.4956 1.6608.1182.2779-.2085.4546-.5128.4989-.8568.0437-.3441-.0521-.6834-.2685-.9542l-1.6375-2.0459-4.8134-1.3752-4.5699 3.8079h-15.846689v-1.5565h15.283389l2.6117-2.1767-2.9363-4.8276h17.5123l-3.113 5.4478h.2155c1.1876 0 2.1595.8943 2.3051 2.0422l3.8633-3.8633 3.7986 3.0391 4.8477-6.6656h-1.5846v-1.5565zm-16.1727 9.339c0 .4288-.3495.7781-.7784.7781h-.9128c-.0709-.4911-.2592-.9596-.5783-1.3587l-.1587-.1978h1.6498c.4289 0 .7784.3495.7784.7784zm-10.2995-4.7529-.9478.79-1.3767-2.2631h12.0613l-2.2234 3.8915h-.8864l-.5441-.6802zm7.5179 8.2006c.3914-.2934.681-.6794.8739-1.1129h1.1293c.4289 0 .7784.3495.7784.7783 0 .4289-.3495.7784-.7784.7784h-2.8912c.3137-.093.6148-.2391.888-.4438zm2.7816 2.7784c0 .4289-.3495.7784-.7784.7784h-3.113c-.4288 0-.7783-.3495-.7783-.7784 0-.4288.3495-.7783.7783-.7783h3.113c.4289-.0002.7784.3493.7784.7783zm0 3.113c0 .4289-.3495.7783-.7784.7783h-3.113c-.4288 0-.7783-.3494-.7783-.7783 0-.4288.3495-.7783.7783-.7783h3.113c.4289-.0002.7784.3493.7784.7783zm-6.581 16.3362c2.3682.0894 4.5886-.7503 6.2844-2.3792 1.6965-1.6295 2.6312-3.8229 2.6311-6.1747 0-2.109-.7658-4.095-2.1534-5.6593-.2935.1331-.6171.2117-.9596.2117h-3.113c-.6 0-1.1425-.2335-1.5565-.607l-.1712-.172c-.3727-.4141-.607-.9565-.607-1.5565s.2334-1.1424.607-1.5565c-.3727-.4141-.607-.9565-.607-1.5565s.2334-1.1424.607-1.5565c-.3081-.3417-.5129-.772-.5766-1.2507-.0075-.0057-.015-.0114-.0225-.0172-.0883-.0673-.1773-.1351-.2584-.2162l-.5853-.5853-2.2966 1.8375c-.1013 2.4437-1.1527 4.8214-3.0096 6.7303-1.6 1.646-2.4583 3.8166-2.4171 6.1116.0802 4.4507 3.7613 8.2175 8.2043 8.3965z" fill-rule="evenodd"/></g><path d="m20.6025 15.5861-.9478.79-1.3767-2.2631h12.0613l-2.2234 3.8915h-.8864l-.5441-.6802z" fill="#043d75"/><path d="m30.6054 43.6351c-1.6958 1.6289-3.9162 2.4686-6.2844 2.3792-4.443-.179-8.1241-3.9458-8.2043-8.3965-.0412-2.295.8171-4.4656 2.4171-6.1116 1.8569-1.9089 2.9083-4.2866 3.0096-6.7303l2.2966-1.8375.5853.5853c.0811.0811.1701.1489.2584.2162l.0225.0172c.0637.4787.2685.909.5766 1.2507-.3736.4141-.607.9565-.607 1.5565s.2343 1.1424.607 1.5565c-.3736.4141-.607.9565-.607 1.5565s.2343 1.1424.607 1.5565l.1712.172c.414.3735.9565.607 1.5565.607h3.113c.3425 0 .6661-.0786.9596-.2117 1.3876 1.5643 2.1534 3.5503 2.1534 5.6593.0001 2.3518-.9346 4.5452-2.6311 6.1747z" fill="#043d75"/><path clip-rule="evenodd" d="m24.8781 33v.9791h.4044l1.2867 1.0709v1.7743l-.7338.8143 1.713 1.1432v2.4705l-1.8168 1.2126h-.7942v.9791h-.6528v-.9791h-.6527v.9791h-.6528v-.9791h-.3264-.6527v-8.4858h.3264.3263.3264v-.9791h.6528v.9791h.5934v-.9791zm-.5935 8.8121h.6528.5964l1.3618-.9089v-1.7723l-1.3618-.9089h-.2242-2.6569v3.5901h.3264.6528zm-1.3055-7.1802h-.3264v2.9373h2.3665l.8973-.9956v-1.2176l-.8701-.7241h-.1683-.6528-.5934z" fill="#fff" fill-rule="evenodd"/><path d="m24.8781 33.9791h-.2v.2h.2zm0-.9791h.2v-.2h-.2zm.4044.9791.1279-.1537-.0556-.0463h-.0723zm1.2867 1.0709h.2v-.0937l-.072-.06zm0 1.7743.1486.1339.0514-.0571v-.0768zm-.7338.8143-.1485-.1339-.1549.1718.1924.1284zm1.713 1.1432h.2v-.107l-.089-.0594zm0 2.4705.111.1664.089-.0594v-.107zm-1.8168 1.2126v.2h.0606l.0504-.0337zm-.7942 0v-.2h-.2v.2zm0 .9791v.2h.2v-.2zm-.6528 0h-.2v.2h.2zm0-.9791h.2v-.2h-.2zm-.6527 0v-.2h-.2v.2zm0 .9791v.2h.2v-.2zm-.6528 0h-.2v.2h.2zm0-.9791h.2v-.2h-.2zm-.9791 0h-.2v.2h.2zm0-8.4858v-.2h-.2v.2zm.9791 0v.2h.2v-.2zm0-.9791v-.2h-.2v.2zm.6528 0h.2v-.2h-.2zm0 .9791h-.2v.2h.2zm.5934 0v.2h.2v-.2zm0-.9791v-.2h-.2v.2zm1.3085 8.8121v.2h.0606l.0504-.0336zm1.3618-.9089.111.1664.089-.0594v-.107zm0-1.7723h.2v-.107l-.089-.0593zm-1.3618-.9089.111-.1664-.0504-.0336h-.0606zm-2.8811 0v-.2h-.2v.2zm0 3.5901h-.2v.2h.2zm0-7.1802v-.2h-.2v.2zm.3264 0v-.2zm-.3264 2.9373h-.2v.2h.2zm2.3665 0v.2h.089l.0596-.0661zm.8973-.9956.1486.1338.0514-.057v-.0768zm0-1.2176h.2v-.0937l-.0721-.06zm-.8701-.7241.1279-.1538-.0556-.0462h-.0723zm-.1683 0v-.2zm.2-.6528v-.9791h-.4v.9791zm.2044-.2h-.4044v.4h.4044zm1.4147 1.1172-1.2868-1.0709-.2559.3075 1.2868 1.0709zm.072 1.928v-1.7743h-.4v1.7743zm-.7852.9481.7338-.8142-.2971-.2678-.7338.8143zm1.6754.843-1.7129-1.1432-.2221.3327 1.7129 1.1432zm.089 2.6369v-2.4705h-.4v2.4705zm-1.9058 1.3789 1.8168-1.2125-.2221-.3327-1.8167 1.2125zm-.9052.0337h.7942v-.4h-.7942zm-.2-.2v.9791h.4v-.9791zm.2.7791h-.6528v.4h.6528zm-.4528.2v-.9791h-.4v.9791zm-.8527-.7791h.6527v-.4h-.6527zm.2.7791v-.9791h-.4v.9791zm-.8528.2h.6528v-.4h-.6528zm-.2-1.1791v.9791h.4v-.9791zm-.1264.2h.3264v-.4h-.3264zm-.6527 0h.6527v-.4h-.6527zm-.2-8.6858v8.4858h.4v-8.4858zm.5264-.2h-.3264v.4h.3264zm.3263 0h-.3263v.4h.3263zm.3264 0h-.3264v.4h.3264zm-.2-.7791v.9791h.4v-.9791zm.8528-.2h-.6528v.4h.6528zm.2 1.1791v-.9791h-.4v.9791zm.3934-.2h-.5934v.4h.5934zm-.2-.7791v.9791h.4v-.9791zm.8528-.2h-.6528v.4h.6528zm-.5935 9.2121h.6528v-.4h-.6528zm.6528 0h.5964v-.4h-.5964zm.7074-.0336 1.3618-.9089-.222-.3327-1.3618.9089zm1.4508-1.0753v-1.7723h-.4v1.7723zm-.089-1.9386-1.3618-.909-.222.3328 1.3618.9089zm-1.4728-.9426h-.2242v.4h.2242zm-.2242 0h-2.6569v.4h2.6569zm-2.8569.2v3.5901h.4v-3.5901zm.2 3.7901h.3264v-.4h-.3264zm.3264 0h.6528v-.4h-.6528zm.6528 0h.6527v-.4h-.6527zm-.9792-7.1802h.3264v-.4h-.3264zm.2 2.7373v-2.9373h-.4v2.9373zm2.1665-.2h-2.3665v.4h2.3665zm.7487-.9295-.8973.9957.2972.2677.8973-.9957zm-.0514-1.0837v1.2176h.4v-1.2176zm-.7981-.5704.8702.7242.2558-.3075-.8701-.7242zm-.0403.0463h.1683v-.4h-.1683zm-.6528 0h.6528v-.4h-.6528zm-.5934 0h.5934v-.4h-.5934zm-.6528 0h.6528v-.4h-.6528z" fill="#fff"/></g></svg>