<svg fill="none" height="48" viewBox="0 0 48 48" width="48" xmlns="http://www.w3.org/2000/svg"><path d="m20.25 14.25h1.5v1.5h-1.5z" fill="#13da5a"/><path d="m23.25 14.25h4.5v1.5h-4.5z" fill="#13da5a"/><path d="m21.75 42.75h4.5v1.5h-4.5z" fill="#13da5a"/><path d="m25.5 37.5c-1.6567 0-3-1.3433-3-3v-10.5c0-1.6568 1.3433-3 3-3h6.75v-2.25c0-.8273-.6727-1.5-1.5-1.5h-13.5c-.8273 0-1.5.6727-1.5 1.5v21c0 .8272.6727 1.5 1.5 1.5h13.5c.8273 0 1.5-.6728 1.5-1.5v-2.25z" fill="#043d75"/><path d="m41.25 35.25c-.735 0-1.446-.276-2.0017-.7762l1.0035-1.1145c.2805.2512.6345.3907.9982.3907.8273 0 1.5-.6727 1.5-1.5s-.6727-1.5-1.5-1.5c-.3637 0-.7177.1395-.9982.3907l-1.0035-1.1145c.5557-.5002 1.2667-.7762 2.0017-.7762 1.6545 0 3 1.3455 3 3s-1.3455 3-3 3z" fill="#13da5a"/><path d="m38.25 35.25c-1.6545 0-3-1.3455-3-3s1.3455-3 3-3 3 1.3455 3 3-1.3455 3-3 3z" fill="#043d75"/><path d="m30.75 35.25h-4.5c-.8273 0-1.5-.6727-1.5-1.5v-3c0-.8273.6727-1.5 1.5-1.5h4.5c.8273 0 1.5.6727 1.5 1.5v3c0 .8273-.6727 1.5-1.5 1.5zm-4.5-4.5v3h4.5015l-.0015-3z" fill="#13da5a"/><path d="m20.25 38.25h-1.5v-1.5h1.5zm0-3h-1.5v-1.5h1.5zm0-3h-1.5v-1.5h1.5z" fill="#fff"/><path d="m43.5 20.25h-8.25v-3.9097c1.1565.5962 2.4308.9097 3.75.9097 4.5488 0 8.25-3.7013 8.25-8.25 0-4.54875-3.7012-8.25-8.25-8.25s-8.25 3.70125-8.25 8.25c0 .7665.117 1.518.3263 2.25h-5.0385c-1.0748-6.0285-6.3435-10.5-12.5378-10.5-7.0305 0-12.75 5.7195-12.75 12.75 0 6.777 5.319 12.3203 12 12.7118v17.2882c0 2.0677 1.6823 3.75 3.75 3.75h15c2.0677 0 3.75-1.6823 3.75-3.75v-5.25h8.25c2.0677 0 3.75-1.6823 3.75-3.75v-10.5c0-2.0677-1.6823-3.75-3.75-3.75zm-20.25 4.5h22.5v1.5h-22.5zm22.362-1.5h-22.224c.3105-.8708 1.1355-1.5 2.112-1.5h18c.9765 0 1.8015.6292 2.112 1.5zm-6.612-21c3.7222 0 6.75 3.02775 6.75 6.75 0 3.7222-3.0278 6.75-6.75 6.75-1.3635 0-2.667-.411-3.7935-1.1827-.168-1.44-1.1445-2.625-2.4713-3.0923-.3165-.7943-.4852-1.6245-.4852-2.475 0-3.72225 3.0278-6.75 6.75-6.75zm-25.4805 10.5h-5.25075c.0525-1.6065.2655-3.13425.612-4.5h9.24075c.237.9315.411 1.9403.516 3h-2.1375c-1.2203 0-2.2958.5948-2.9805 1.5zm-.7695 6h-3.86925c-.3465-1.3657-.5595-2.8935-.612-4.5h4.55775c-.0503.2423-.0765.4935-.0765.75zm-3.4095 1.5h3.4095v4.3657c-1.3717-.4432-2.5882-2.0684-3.4095-4.3657zm-7.05225-6h4.48125c.04725 1.6042.2415 3.12.564 4.5h-3.77625c-.72-1.359-1.16175-2.8837-1.269-4.5zm0-1.5c.10725-1.6163.549-3.141 1.26975-4.5h3.7755c-.3225 1.38-.51675 2.8958-.564 4.5zm11.21175-10.5c1.6537 0 3.1845 1.7775 4.1618 4.5h-8.3213c.969-2.70975 2.4855-4.5 4.1595-4.5zm6.6413 9c-.0968-1.0568-.2558-2.061-.4741-3h3.7823c.4905.92775.852 1.9358 1.068 3zm2.3475-4.5h-3.2355c-.4958-1.533-1.1573-2.8305-1.9388-3.825 2.0693.7485 3.8648 2.0865 5.1743 3.825zm-12.8123-3.81675c-.7785.99525-1.431 2.2995-1.9245 3.81675h-3.231c1.30275-1.728 3.08625-3.06525 5.1555-3.81675zm-5.1555 17.31675h3.231c.4935 1.5173 1.146 2.8215 1.9245 3.8167-2.06925-.7514-3.85275-2.0887-5.1555-3.8167zm29.229 23.25c0 1.2405-1.0095 2.25-2.25 2.25h-15c-1.2405 0-2.25-1.0095-2.25-2.25v-28.5c0-1.2405 1.0095-2.25 2.25-2.25h15c1.2405 0 2.25 1.0095 2.25 2.25v5.25h-8.25c-2.0677 0-3.75 1.6823-3.75 3.75v10.5c0 2.0677 1.6823 3.75 3.75 3.75h8.25zm9.75-6.75h-18c-1.2405 0-2.25-1.0095-2.25-2.25v-6.75h22.5v6.75c0 1.2405-1.0095 2.25-2.25 2.25z" fill="#13da5a"/><g fill="#fff"><path d="m12.75 9.75h1.5v1.5h-1.5z"/><path d="m9.75 9.75h1.5v1.5h-1.5z"/><path clip-rule="evenodd" d="m38.8781 4v.97912h.4044l1.2867 1.07092v1.77424l-.7338.81427 1.713 1.14323v2.47052l-1.8168 1.2126h-.7942v.9791h-.6528v-.9791h-.6527v.9791h-.6528v-.9791h-.3264-.6527v-8.48578h.3264.3263.3264v-.97912h.6528v.97912h.5934v-.97912zm-.5935 8.8121h.6528.5964l1.3618-.9089v-1.7723l-1.3618-.9089h-.2242-2.6569v3.5901h.3264.6528zm-1.3055-7.18023h-.3264v2.93738h2.3665l.8973-.9957v-1.21752l-.8701-.72416h-.1683-.6528-.5934z" fill-rule="evenodd"/><path d="m38.8781 4.97912h-.2v.2h.2zm0-.97912h.2v-.2h-.2zm.4044.97912.1279-.15372-.0556-.04628h-.0723zm1.2867 1.07092h.2v-.09376l-.072-.05997zm0 1.77424.1486.13389.0514-.05707v-.07682zm-.7338.81427-.1485-.13389-.1549.17183.1924.12841zm1.713 1.14323h.2v-.10697l-.089-.05938zm0 2.47052.111.1664.089-.0594v-.107zm-1.8168 1.2126v.2h.0606l.0504-.0337zm-.7942 0v-.2h-.2v.2zm0 .9791v.2h.2v-.2zm-.6528 0h-.2v.2h.2zm0-.9791h.2v-.2h-.2zm-.6527 0v-.2h-.2v.2zm0 .9791v.2h.2v-.2zm-.6528 0h-.2v.2h.2zm0-.9791h.2v-.2h-.2zm-.9791 0h-.2v.2h.2zm0-8.48578v-.2h-.2v.2zm.9791 0v.2h.2v-.2zm0-.97912v-.2h-.2v.2zm.6528 0h.2v-.2h-.2zm0 .97912h-.2v.2h.2zm.5934 0v.2h.2v-.2zm0-.97912v-.2h-.2v.2zm1.3085 8.8121v.2h.0606l.0504-.0336zm1.3618-.9089.111.1664.089-.0594v-.107zm0-1.7723h.2v-.107l-.089-.05935zm-1.3618-.9089.111-.16635-.0504-.03365h-.0606zm-2.8811 0v-.2h-.2v.2zm0 3.5901h-.2v.2h.2zm0-7.18023v-.2h-.2v.2zm.3264 0v-.2zm-.3264 2.93738h-.2v.2h.2zm2.3665 0v.2h.089l.0596-.06611zm.8973-.9957.1486.13389.0514-.05707v-.07682zm0-1.21752h.2v-.09376l-.0721-.05997zm-.8701-.72416.1279-.15372-.0556-.04628h-.0723zm-.1683 0v-.2zm.2-.65275v-.97912h-.4v.97912zm.2044-.2h-.4044v.4h.4044zm1.4147 1.11719-1.2868-1.07091-.2559.30745 1.2868 1.07091zm.072 1.92797v-1.77424h-.4v1.77424zm-.7852.94816.7338-.81427-.2971-.26778-.7338.81427zm1.6754.84299-1.7129-1.14323-.2221.3327 1.7129 1.14323zm.089 2.63687v-2.47052h-.4v2.47052zm-1.9058 1.3789 1.8168-1.2125-.2221-.3327-1.8167 1.2125zm-.9052.0337h.7942v-.4h-.7942zm-.2-.2v.9791h.4v-.9791zm.2.7791h-.6528v.4h.6528zm-.4528.2v-.9791h-.4v.9791zm-.8527-.7791h.6527v-.4h-.6527zm.2.7791v-.9791h-.4v.9791zm-.8528.2h.6528v-.4h-.6528zm-.2-1.1791v.9791h.4v-.9791zm-.1264.2h.3264v-.4h-.3264zm-.6527 0h.6527v-.4h-.6527zm-.2-8.68578v8.48578h.4v-8.48578zm.5264-.2h-.3264v.4h.3264zm.3263 0h-.3263v.4h.3263zm.3264 0h-.3264v.4h.3264zm-.2-.77912v.97912h.4v-.97912zm.8528-.2h-.6528v.4h.6528zm.2 1.17912v-.97912h-.4v.97912zm.3934-.2h-.5934v.4h.5934zm-.2-.77912v.97912h.4v-.97912zm.8528-.2h-.6528v.4h.6528zm-.5935 9.2121h.6528v-.4h-.6528zm.6528 0h.5964v-.4h-.5964zm.7074-.0336 1.3618-.9089-.222-.3327-1.3618.9089zm1.4508-1.0753v-1.7723h-.4v1.7723zm-.089-1.93865-1.3618-.9089-.222.3327 1.3618.90895zm-1.4728-.94255h-.2242v.4h.2242zm-.2242 0h-2.6569v.4h2.6569zm-2.8569.2v3.5901h.4v-3.5901zm.2 3.7901h.3264v-.4h-.3264zm.3264 0h.6528v-.4h-.6528zm.6528 0h.6527v-.4h-.6527zm-.9792-7.18023h.3264v-.4h-.3264zm.2 2.73738v-2.93738h-.4v2.93738zm2.1665-.2h-2.3665v.4h2.3665zm.7487-.92959-.8973.9957.2972.26778.8973-.9957zm-.0514-1.08363v1.21752h.4v-1.21752zm-.7981-.57043.8702.72415.2558-.30745-.8701-.72415zm-.0403.04627h.1683v-.4h-.1683zm-.6528 0h.6528v-.4h-.6528zm-.5934 0h.5934v-.4h-.5934zm-.6528 0h.6528v-.4h-.6528z"/></g></svg>