<svg fill="none" height="48" viewBox="0 0 48 48" width="48" xmlns="http://www.w3.org/2000/svg"><path clip-rule="evenodd" d="m23.9856 5.15127.0131-.00981 16.1534 10.01444-1.0405 16.6474-15.1129 9.9445-16.54382-7.9804.00081-.0061-2.84821 1.4241v.0004l19.37812 11.1848 19.2485-11.185v-22.2399l-19.2485-11.18496z" fill="#043d75" fill-rule="evenodd"/><path d="m4.5 33.5419v1.7081l19.4856 11.25 19.4855-11.25v-22.5l-19.4855-11.25-19.4856 11.25v1.8259m0 9.4241v-7.1858z" stroke="#00d75b" stroke-width="1.3"/><path d="m22.0348 6.44263-14.56648 7.80347" stroke="#fff" stroke-width="1.3"/><path clip-rule="evenodd" d="m33.6155 23.4668 2.5323 2.4827.8682-9.9739h-11.0415l3.1211 3.06-9.6459 9.6459 3.2842 3.1104z" fill="#043d75" fill-rule="evenodd"/><path d="m25.9056 15.7703 11.1107.2044-.7535 10.0886-2.732-2.5325-7.965 6.1701" stroke="#fff" stroke-miterlimit="10" stroke-width="1.3"/><path d="m15.1028 24.2025-3.4676-3.4675v11.0416l4.6641-4.3885 10.756-10.2801-1.1422-1.2374z" fill="#043d75"/><path d="m14.7903 24.5155.287.287.3102-.2617 10.4632-8.8257 2.8549 3.426-9.2283 9.2283-.3016.3017.291.3119 2.1941 2.3525h-9.584v-9.5335z" stroke="#00d75b" stroke-width="1.3"/></svg>