<svg fill="none" height="49" viewBox="0 0 48 49" width="48" xmlns="http://www.w3.org/2000/svg" xmlns:xlink="http://www.w3.org/1999/xlink"><clipPath id="a"><path d="m0 .311523h48v48h-48z"/></clipPath><clipPath id="b"><path d="m0 .311523h48v12h-48z"/></clipPath><g clip-path="url(#a)"><g clip-path="url(#b)" fill="#fff"><path clip-rule="evenodd" d="m14.9562 9.07312 5.6667-6.73654 8.6674 1.53924 3.0007 8.27578-5.6667 6.7365-8.6674-1.5392zm5.2731-7.82209 9.8043 1.74115 3.3943 9.36132-6.41 7.6202-9.8043-1.7412-3.3943-9.36128zm2.4601 4.29358-.3835-1.05762-.705.25565.3834 1.05762-.641.23244-.3835-1.05763-.7051.25565.3835 1.05763-.3525.12782-.3526.12783-.3525.12782 3.3234 9.16608.7051-.2556.3526-.1279.3834 1.0577.7051-.2557-.3834-1.0576.705-.2557.3835 1.0577.7051-.2557-.3835-1.0576.8579-.3111 1.4876-2.0213-.9676-2.66861-2.2981-.56401.4738-1.16695-.6949-1.9165-1.8094-.65279zm3.1319 8.43779-.7051.2556-.7051.2557-.7051.2556-.3525.1279-1.4061-3.878 2.8699-1.04057.2421-.08778 1.827.44845.6941 1.9144-1.115 1.5151zm-4.9274-6.98897.705-.25565.6411-.23243.7051-.25566.1817-.0659 1.2235.44142.4769 1.31514-.5793 1.42696-2.5562.92679-1.1504-3.17284z" fill-rule="evenodd"/><path d="m20.6229 2.33658.035-.19692-.1137-.02019-.0743.08837zm-5.6667 6.73654-.153-.12874-.0743.08836.0393.10855zm14.3341-5.1973.188-.06817-.0393-.10855-.1137-.02019zm3.0007 8.27578.153.1288.0744-.0884-.0394-.1086zm-5.6667 6.7365-.035.197.1137.0202.0743-.0884zm-8.6674-1.5392-.188.0682.0393.1085.1137.0202zm12.0767-14.35672.188-.06817-.0393-.10856-.1137-.02019zm-9.8043-1.74115.035-.19691-.1137-.02019-.0743.08836zm13.1986 11.10247.153.1288.0744-.0884-.0394-.1086zm-6.41 7.6202-.035.1969.1137.0202.0743-.0884zm-9.8043-1.7412-.188.0682.0393.1086.1137.0202zm-3.3943-9.36128-.153-.12875-.0744.08837.0394.10855zm8.4866-4.38423.1881-.06818-.0682-.18802-.188.06817zm.3835 1.05762-.188.06817.0682.18803.188-.06818zm-1.0885-.80197-.0682-.18803-.188.06818.0681.18802zm.3834 1.05762.0682.18802.188-.06817-.0681-.18802zm-.641.23244-.188.06817.0681.18802.1881-.06817zm-.3835-1.05763.188-.06817-.0681-.18803-.1881.06818zm-.7051.25565-.0681-.18802-.1881.06817.0682.18803zm.3835 1.05763.0682.18802.188-.06818-.0682-.18802zm-1.0576.38347-.0682-.18802-.188.06818.0682.18802zm3.3234 9.16608-.188.0682.0682.188.188-.0682zm.7051-.2556.0682.188zm.3526-.1279.188-.0681-.0682-.1881-.188.0682zm.3834 1.0577-.188.0681.0682.188.188-.0681zm.7051-.2557.0682.188.188-.0681-.0681-.1881zm-.3834-1.0576-.0682-.188-.188.0681.0681.1881zm.705-.2557.1881-.0681-.0682-.1881-.188.0682zm.3835 1.0577-.188.0681.0682.188.188-.0681zm.7051-.2557.0682.188.188-.0682-.0682-.188zm-.3835-1.0576-.0682-.188-.188.0681.0682.188zm.8579-.3111.0682.188.057-.0206.0359-.0488zm1.4876-2.0213.161.1186.0634-.0862-.0364-.1005zm-.9676-2.66861.188-.06817-.0365-.10057-.1039-.0255zm-2.2981-.56401-.1853-.07523-.087.21433.2247.05513zm.4738-1.16695.1853.07522.0289-.07118-.0262-.07222zm-.6949-1.9165.188-.06817-.0319-.08814-.0882-.03182zm-1.8094-.65279.0679-.18813-.0681-.02455-.068.02466zm2.6951 8.59616.0681.188zm-2.4678.8948-.188.0681.0681.1881.1881-.0682zm-1.4061-3.878-.0682-.188-.188.0682.0682.188zm2.8699-1.04057.0682.18807zm.2421-.08778.0477-.19424-.0589-.01445-.057.02067zm1.827.44845.188-.0682-.0364-.1006-.1039-.0255zm.6941 1.9144.1611.1185.0634-.0861-.0364-.1006zm-1.115 1.5151.0682.188.057-.0206.0359-.0488zm-3.5204-7.49911.0681.18803zm.1817-.0659.0679-.18813-.068-.02455-.068.02465zm1.2235.44142.1881-.06818-.032-.08814-.0882-.03181zm.4769 1.31514.1853.07522.0289-.07118-.0262-.07222zm-.5793 1.42696.0682.18802.0836-.03034.0335-.08245zm-2.5562.92679-.188.0682.0682.188.188-.0681zm-1.1504-3.17284-.0682-.18803-.188.06818.0682.18802zm-.0714-4.91342-5.6667 6.73654.3061.25749 5.6667-6.73654zm8.8554 1.47107-8.6674-1.53925-.0699.39384 8.6673 1.53924zm3.1537 8.40449-3.0007-8.27575-.376.13635 3.0007 8.2758zm-5.7017 6.9335 5.6667-6.7365-.3061-.2575-5.6667 6.7365zm-8.8554-1.4711 8.6674 1.5393.0699-.3939-8.6673-1.5392zm-3.1537-8.40451 3.0007 8.27581.376-.1364-3.0006-8.27575zm15.3004-6.34603-9.8043-1.74114-.0699.39383 9.8043 1.74115zm3.5473 9.49004-3.3943-9.36129-.376.13635 3.3943 9.36134zm-6.445 7.8171 6.41-7.6201-.3061-.2575-6.41 7.6201zm-9.9923-1.6729 9.8043 1.7411.0699-.3938-9.8042-1.7412zm-3.5473-9.49011 3.3943 9.36131.376-.1363-3.3943-9.36136zm6.445-7.8171-6.41 7.62018.3061.25749 6.41-7.62018zm2.0416 3.43287.3835 1.05762.376-.13634-.3834-1.05763zm-.4489.3755.7051-.25565-.1363-.37605-.7051.25565zm.5034.80143-.3835-1.05763-.3761.13635.3835 1.05763zm-.7609.48863.641-.23244-.1363-.37604-.6411.23243zm-.6397-1.17748.3835 1.05763.376-.13635-.3835-1.05762zm-.4489.3755.7051-.25565-.1364-.37604-.705.25565zm.5033.80143-.3835-1.05762-.376.13635.3835 1.05762zm-.4724.38402.3526-.12782-.1364-.37605-.3525.12783zm-.3525.12783.3525-.12783-.1363-.37604-.3526.12783zm-.3525.12783.3525-.12783-.1364-.37604-.3525.12782zm3.4433 8.90985-3.3235-9.16605-.376.13635 3.3234 9.1661zm.4489-.3755-.7051.2557.1363.376.7051-.2556zm.3525-.1278-.3525.1278.1363.3761.3525-.1278zm.6397 1.1775-.3835-1.0576-.3761.1363.3835 1.0576zm.4489-.3755-.7051.2556.1363.3761.7051-.2557zm-.5034-.8014.3835 1.0576.3761-.1364-.3835-1.0576zm.825-.5119-.7051.2557.1363.376.7051-.2557zm.6396 1.1775-.3834-1.0576-.3761.1363.3835 1.0576zm.4489-.3755-.7051.2556.1364.3761.7051-.2557zm-.5033-.8015.3835 1.0577.376-.1364-.3835-1.0576zm.9778-.5672-.858.3111.1364.376.8579-.3111zm1.3946-1.9518-1.4876 2.0213.3222.2371 1.4875-2.0213zm-.9946-2.48194.9676 2.66864.3761-.1363-.9676-2.66868zm-2.1576-.43795 2.298.56401.0953-.38847-2.298-.56401zm.3361-1.43641-.4738 1.16695.3707.15046.4737-1.16696zm-.6976-1.77309.6949 1.91649.376-.13635-.6949-1.91649zm-1.6893-.53284 1.8094.65279.1358-.37626-1.8094-.65279zm-.3007.15826.4368-.15837-.1364-.37604-.4368.15837zm2.4268 8.69347.705-.2557-.1363-.376-.7051.2556zm-.7051.2556.7051-.2556-.1364-.3761-.7051.2557zm-.7051.2557.7051-.2557-.1364-.376-.7051.2556zm-.3525.1278.3525-.1278-.1364-.3761-.3525.1278zm-1.6623-3.9978 1.4061 3.8779.376-.1363-1.4061-3.878zm2.9897-1.29679-2.8699 1.04059.1364.376 2.8699-1.0405zm.2421-.08778-.2421.08778.1364.37609.2421-.0878zm1.9429.44217-1.827-.44839-.0954.38849 1.827.4484zm.8345 2.0405-.6942-1.9144-.376.1363.6941 1.9144zm-1.142 1.7019 1.115-1.5152-.3221-.2371-1.1151 1.5152zm-.7372.303.6443-.2336-.1364-.376-.6442.2336zm-4.3586-7.62064-.7051.25565.1363.37604.7051-.25565zm.641-.23244-.641.23244.1363.37604.6411-.23243zm.7051-.25565-.7051.25565.1364.37605.705-.25565zm.1818-.06591-.1818.06591.1363.37605.1818-.06591zm1.3595.44132-1.2235-.44142-.1357.37626 1.2235.44142zm.597 1.43509-.4768-1.31514-.3761.13635.4769 1.31514zm-.582 1.57037.5793-1.42697-.3706-.15045-.5793 1.42696zm-2.6733 1.03966 2.5562-.92687-.1364-.37605-2.5561.92682zm-1.4066-3.29277 1.1504 3.17287.3761-.1363-1.1505-3.17292zm.4724-.38402-.3526.12782.1364.37605.3525-.12783z"/></g><path d="m15 21.3115h18v26h-18z" fill="#043d75"/><path clip-rule="evenodd" d="m47.2 11.5115h-14.744-16.912-14.744c-.4418 0-.8.3582-.8.8v4.8c0 .4418.3582.8.8.8h2.4v23.2c0 .4418.3582.8.8.8h10.4v5.6c0 .4418.3582.8.8.8h17.6c.4418 0 .8-.3582.8-.8v-5.6h10.4c.4418 0 .8-.3582.8-.8v-23.2h2.4c.4418 0 .8-.3582.8-.8v-4.8c0-.4418-.3582-.8-.8-.8zm-31.2 35.2h16v-24h-16zm17.6-6.4h9.6v-22.4h-38.4v22.4h9.6v-17.6h-2.4v-1.6h24v1.6h-2.4zm-32-24h44.8v-3.2h-44.8z" fill="#13da5a" fill-rule="evenodd"/><path clip-rule="evenodd" d="m18 32.3115c0-3.3137 2.6863-6 6-6s6 2.6863 6 6-2.6863 6-6 6c-3.312-.0041-5.9959-2.688-6-6zm1.3333 0c0 2.5774 2.0894 4.6667 4.6667 4.6667s4.6667-2.0893 4.6667-4.6667c0-2.5773-2.0894-4.6666-4.6667-4.6666-2.5761.0029-4.6638 2.0905-4.6667 4.6666zm4-4h1.3333v1.3334h-1.3333zm3.8773 3.3333c-.3661-1.0394-1.5055-1.5852-2.5449-1.2191-.7997.2816-1.3341 1.0379-1.3324 1.8858 0 .3682-.2985.6667-.6667.6667s-.6667-.2985-.6667-.6667.2985-.6667.6667-.6667v-1.3333c-.8445.0035-1.5958.5371-1.8773 1.3333h-.7894v1.3334h.7894c.2815.7962 1.0328 1.3298 1.8773 1.3333 1.1046 0 2-.8954 2-2 0-.3682.2985-.6667.6667-.6667.3681 0 .6666.2985.6666.6667s-.2985.6667-.6666.6667v1.3333c.8445-.0035 1.5958-.5371 1.8773-1.3333h.7893v-1.3334zm-3.8773 3.3334h1.3333v1.3333h-1.3333z" fill="#fff" fill-rule="evenodd"/><g fill="#13da5a"><path d="m19.2 43.5115v-2.4h-1.6v3.2c0 .4418.3582.8.8.8h3.2v-1.6z"/><path d="m28.8 41.1115v2.4h-2.4v1.6h3.2c.4418 0 .8-.3582.8-.8v-3.2z"/></g></g></svg>