<svg height="100" viewBox="0 0 100 100" width="100" xmlns="http://www.w3.org/2000/svg"><path d="m93.719 8.157-91.564 35.768c-2.388.893-2.914 4.036-.946 5.658.327.27.702.474 1.106.602l17.346 5.184c3.772 1.036 6.745 3.942 7.867 7.69l6.807 21.64c.88 2.878 4.52 3.764 6.624 1.612l9.302-9.501c1.503-1.587 3.947-1.823 5.725-.552l20.564 15.022c2.9 2.141 7.04.503 7.69-3.042l15.563-74.715c1.001-3.28-1.924-6.414-5.265-5.641-.281.065-.555.157-.819.275zm-11.444 16.451-36.839 32.549c-2.034 1.779-3.313 4.267-3.577 6.956-.281 1.982-2.603 2.916-4.178 1.681-.374-.293-.661-.684-.829-1.129l-1.612-5.366c-1.234-3.857.313-8.06 3.754-10.196l42.028-26.112c.622-.483 1.534-.11 1.64.67.05.362-.098.723-.387.947z" fill="#02d464"/></svg>